<?xml version='1.0' encoding='utf-8'?>
<mlt title="Anonymous Submission" version="0.9.0" root="/home/marc" LC_NUMERIC="en_US.UTF-8">
 <profile width="1920" display_aspect_den="9" colorspace="709" frame_rate_den="1" description="HD 1080p 30 fps" height="1080" display_aspect_num="16" frame_rate_num="30" progressive="1" sample_aspect_num="1" sample_aspect_den="1"/>
 <producer in="0" out="500" id="black">
  <property name="mlt_type">producer</property>
  <property name="length">15000</property>
  <property name="eof">pause</property>
  <property name="resource">black</property>
  <property name="aspect_ratio">0</property>
  <property name="mlt_service">colour</property>
 </producer>
 <playlist id="black_track">
  <entry in="0" out="2455" producer="black"/>
 </playlist>
 <playlist id="playlist1"/>
 <producer in="0" out="290" id="5_3">
  <property name="mlt_type">producer</property>
  <property name="length">291</property>
  <property name="eof">pause</property>
  <property name="resource">Projects/Inspiration for Success/Lectures/Conclusion/Audio/clip-01.flac</property>
  <property name="meta.media.nb_streams">1</property>
  <property name="meta.media.0.stream.type">audio</property>
  <property name="meta.media.0.codec.sample_fmt">s16</property>
  <property name="meta.media.0.codec.sample_rate">44100</property>
  <property name="meta.media.0.codec.channels">1</property>
  <property name="meta.media.0.codec.name">flac</property>
  <property name="meta.media.0.codec.long_name">FLAC (Free Lossless Audio Codec)</property>
  <property name="meta.media.0.codec.bit_rate">0</property>
  <property name="seekable">1</property>
  <property name="audio_index">0</property>
  <property name="video_index">-1</property>
  <property name="mlt_service">avformat</property>
 </producer>
 <producer in="0" out="248" id="6_3">
  <property name="mlt_type">producer</property>
  <property name="length">249</property>
  <property name="eof">pause</property>
  <property name="resource">Projects/Inspiration for Success/Lectures/Conclusion/Audio/clip-02.flac</property>
  <property name="meta.media.nb_streams">1</property>
  <property name="meta.media.0.stream.type">audio</property>
  <property name="meta.media.0.codec.sample_fmt">s16</property>
  <property name="meta.media.0.codec.sample_rate">44100</property>
  <property name="meta.media.0.codec.channels">1</property>
  <property name="meta.media.0.codec.name">flac</property>
  <property name="meta.media.0.codec.long_name">FLAC (Free Lossless Audio Codec)</property>
  <property name="meta.media.0.codec.bit_rate">0</property>
  <property name="seekable">1</property>
  <property name="audio_index">0</property>
  <property name="video_index">-1</property>
  <property name="mlt_service">avformat</property>
 </producer>
 <producer in="0" out="272" id="7_3">
  <property name="mlt_type">producer</property>
  <property name="length">273</property>
  <property name="eof">pause</property>
  <property name="resource">Projects/Inspiration for Success/Lectures/Conclusion/Audio/clip-03.flac</property>
  <property name="meta.media.nb_streams">1</property>
  <property name="meta.media.0.stream.type">audio</property>
  <property name="meta.media.0.codec.sample_fmt">s16</property>
  <property name="meta.media.0.codec.sample_rate">44100</property>
  <property name="meta.media.0.codec.channels">1</property>
  <property name="meta.media.0.codec.name">flac</property>
  <property name="meta.media.0.codec.long_name">FLAC (Free Lossless Audio Codec)</property>
  <property name="meta.media.0.codec.bit_rate">0</property>
  <property name="seekable">1</property>
  <property name="audio_index">0</property>
  <property name="video_index">-1</property>
  <property name="mlt_service">avformat</property>
 </producer>
 <producer in="0" out="74" id="8_3">
  <property name="mlt_type">producer</property>
  <property name="length">75</property>
  <property name="eof">pause</property>
  <property name="resource">Projects/Inspiration for Success/Lectures/Conclusion/Audio/clip-04.flac</property>
  <property name="meta.media.nb_streams">1</property>
  <property name="meta.media.0.stream.type">audio</property>
  <property name="meta.media.0.codec.sample_fmt">s16</property>
  <property name="meta.media.0.codec.sample_rate">44100</property>
  <property name="meta.media.0.codec.channels">1</property>
  <property name="meta.media.0.codec.name">flac</property>
  <property name="meta.media.0.codec.long_name">FLAC (Free Lossless Audio Codec)</property>
  <property name="meta.media.0.codec.bit_rate">0</property>
  <property name="seekable">1</property>
  <property name="audio_index">0</property>
  <property name="video_index">-1</property>
  <property name="mlt_service">avformat</property>
 </producer>
 <producer in="0" out="235" id="9_3">
  <property name="mlt_type">producer</property>
  <property name="length">236</property>
  <property name="eof">pause</property>
  <property name="resource">Projects/Inspiration for Success/Lectures/Conclusion/Audio/clip-05.flac</property>
  <property name="meta.media.nb_streams">1</property>
  <property name="meta.media.0.stream.type">audio</property>
  <property name="meta.media.0.codec.sample_fmt">s16</property>
  <property name="meta.media.0.codec.sample_rate">44100</property>
  <property name="meta.media.0.codec.channels">1</property>
  <property name="meta.media.0.codec.name">flac</property>
  <property name="meta.media.0.codec.long_name">FLAC (Free Lossless Audio Codec)</property>
  <property name="meta.media.0.codec.bit_rate">0</property>
  <property name="seekable">1</property>
  <property name="audio_index">0</property>
  <property name="video_index">-1</property>
  <property name="mlt_service">avformat</property>
 </producer>
 <producer in="0" out="251" id="10_3">
  <property name="mlt_type">producer</property>
  <property name="length">252</property>
  <property name="eof">pause</property>
  <property name="resource">Projects/Inspiration for Success/Lectures/Conclusion/Audio/clip-06.flac</property>
  <property name="meta.media.nb_streams">1</property>
  <property name="meta.media.0.stream.type">audio</property>
  <property name="meta.media.0.codec.sample_fmt">s16</property>
  <property name="meta.media.0.codec.sample_rate">44100</property>
  <property name="meta.media.0.codec.channels">1</property>
  <property name="meta.media.0.codec.name">flac</property>
  <property name="meta.media.0.codec.long_name">FLAC (Free Lossless Audio Codec)</property>
  <property name="meta.media.0.codec.bit_rate">0</property>
  <property name="seekable">1</property>
  <property name="audio_index">0</property>
  <property name="video_index">-1</property>
  <property name="mlt_service">avformat</property>
 </producer>
 <producer in="0" out="150" id="11_3">
  <property name="mlt_type">producer</property>
  <property name="length">151</property>
  <property name="eof">pause</property>
  <property name="resource">Projects/Inspiration for Success/Lectures/Conclusion/Audio/clip-07.flac</property>
  <property name="meta.media.nb_streams">1</property>
  <property name="meta.media.0.stream.type">audio</property>
  <property name="meta.media.0.codec.sample_fmt">s16</property>
  <property name="meta.media.0.codec.sample_rate">44100</property>
  <property name="meta.media.0.codec.channels">1</property>
  <property name="meta.media.0.codec.name">flac</property>
  <property name="meta.media.0.codec.long_name">FLAC (Free Lossless Audio Codec)</property>
  <property name="meta.media.0.codec.bit_rate">0</property>
  <property name="seekable">1</property>
  <property name="audio_index">0</property>
  <property name="video_index">-1</property>
  <property name="mlt_service">avformat</property>
 </producer>
 <producer in="0" out="214" id="12_3">
  <property name="mlt_type">producer</property>
  <property name="length">215</property>
  <property name="eof">pause</property>
  <property name="resource">Projects/Inspiration for Success/Lectures/Conclusion/Audio/clip-08.flac</property>
  <property name="meta.media.nb_streams">1</property>
  <property name="meta.media.0.stream.type">audio</property>
  <property name="meta.media.0.codec.sample_fmt">s16</property>
  <property name="meta.media.0.codec.sample_rate">44100</property>
  <property name="meta.media.0.codec.channels">1</property>
  <property name="meta.media.0.codec.name">flac</property>
  <property name="meta.media.0.codec.long_name">FLAC (Free Lossless Audio Codec)</property>
  <property name="meta.media.0.codec.bit_rate">0</property>
  <property name="seekable">1</property>
  <property name="audio_index">0</property>
  <property name="video_index">-1</property>
  <property name="mlt_service">avformat</property>
 </producer>
 <producer in="0" out="360" id="13_3">
  <property name="mlt_type">producer</property>
  <property name="length">361</property>
  <property name="eof">pause</property>
  <property name="resource">Projects/Inspiration for Success/Lectures/Conclusion/Audio/clip-09.flac</property>
  <property name="meta.media.nb_streams">1</property>
  <property name="meta.media.0.stream.type">audio</property>
  <property name="meta.media.0.codec.sample_fmt">s16</property>
  <property name="meta.media.0.codec.sample_rate">44100</property>
  <property name="meta.media.0.codec.channels">1</property>
  <property name="meta.media.0.codec.name">flac</property>
  <property name="meta.media.0.codec.long_name">FLAC (Free Lossless Audio Codec)</property>
  <property name="meta.media.0.codec.bit_rate">0</property>
  <property name="seekable">1</property>
  <property name="audio_index">0</property>
  <property name="video_index">-1</property>
  <property name="mlt_service">avformat</property>
 </producer>
 <producer in="0" out="172" id="14_3">
  <property name="mlt_type">producer</property>
  <property name="length">173</property>
  <property name="eof">pause</property>
  <property name="resource">Projects/Inspiration for Success/Lectures/Conclusion/Audio/clip-10.flac</property>
  <property name="meta.media.nb_streams">1</property>
  <property name="meta.media.0.stream.type">audio</property>
  <property name="meta.media.0.codec.sample_fmt">s16</property>
  <property name="meta.media.0.codec.sample_rate">44100</property>
  <property name="meta.media.0.codec.channels">1</property>
  <property name="meta.media.0.codec.name">flac</property>
  <property name="meta.media.0.codec.long_name">FLAC (Free Lossless Audio Codec)</property>
  <property name="meta.media.0.codec.bit_rate">0</property>
  <property name="seekable">1</property>
  <property name="audio_index">0</property>
  <property name="video_index">-1</property>
  <property name="mlt_service">avformat</property>
 </producer>
 <playlist id="playlist2">
  <blank length="93"/>
  <entry in="0" out="290" producer="5_3"/>
  <blank length="23"/>
  <entry in="0" out="248" producer="6_3"/>
  <blank length="12"/>
  <entry in="0" out="272" producer="7_3"/>
  <blank length="1"/>
  <entry in="0" out="74" producer="8_3"/>
  <blank length="9"/>
  <entry in="0" out="235" producer="9_3"/>
  <blank length="27"/>
  <entry in="0" out="178" producer="10_3"/>
  <blank length="15"/>
  <entry in="10" out="150" producer="11_3"/>
  <blank length="10"/>
  <entry in="0" out="199" producer="12_3"/>
  <blank length="8"/>
  <entry in="9" out="355" producer="13_3"/>
  <blank length="4"/>
  <entry in="0" out="172" producer="14_3"/>
 </playlist>
 <producer in="0" out="2343" id="2">
  <property name="mlt_type">producer</property>
  <property name="length">2344</property>
  <property name="eof">pause</property>
  <property name="resource">Projects/Inspiration for Success/Assets/white background.png</property>
  <property name="ttl">25</property>
  <property name="aspect_ratio">1</property>
  <property name="progressive">1</property>
  <property name="seekable">1</property>
  <property name="loop">1</property>
  <property name="meta.media.width">1920</property>
  <property name="meta.media.height">1080</property>
  <property name="mlt_service">pixbuf</property>
 </producer>
 <playlist id="playlist3">
  <blank length="90"/>
  <entry in="0" out="2275" producer="2"/>
 </playlist>
 <producer in="0" out="149" id="3">
  <property name="mlt_type">producer</property>
  <property name="length">150</property>
  <property name="eof">pause</property>
  <property name="resource">Projects/Inspiration for Success/Lectures/Conclusion/EditorProject/title slide.png</property>
  <property name="ttl">25</property>
  <property name="aspect_ratio">1</property>
  <property name="progressive">1</property>
  <property name="seekable">1</property>
  <property name="loop">1</property>
  <property name="meta.media.width">1920</property>
  <property name="meta.media.height">1080</property>
  <property name="mlt_service">pixbuf</property>
 </producer>
 <producer in="0" out="10946" id="4_1">
  <property name="mlt_type">producer</property>
  <property name="length">10947</property>
  <property name="eof">pause</property>
  <property name="resource">Projects/Inspiration for Success/Lectures/Conclusion/Video/MVI_0171.MP4</property>
  <property name="meta.media.nb_streams">2</property>
  <property name="meta.media.0.stream.type">video</property>
  <property name="meta.media.0.stream.frame_rate">29.97</property>
  <property name="meta.media.0.stream.sample_aspect_ratio">0</property>
  <property name="meta.media.0.codec.width">1280</property>
  <property name="meta.media.0.codec.height">720</property>
  <property name="meta.media.0.codec.frame_rate">inf</property>
  <property name="meta.media.0.codec.pix_fmt">yuv420p</property>
  <property name="meta.media.0.codec.sample_aspect_ratio">0</property>
  <property name="meta.media.0.codec.colorspace">709</property>
  <property name="meta.media.0.codec.name">h264</property>
  <property name="meta.media.0.codec.long_name">H.264 / AVC / MPEG-4 AVC / MPEG-4 part 10</property>
  <property name="meta.media.0.codec.bit_rate">3879652</property>
  <property name="meta.attr.0.stream.creation_time.markup">2015-11-27 13:05:32</property>
  <property name="meta.attr.0.stream.language.markup">eng</property>
  <property name="meta.media.1.stream.type">audio</property>
  <property name="meta.media.1.codec.sample_fmt">fltp</property>
  <property name="meta.media.1.codec.sample_rate">48000</property>
  <property name="meta.media.1.codec.channels">2</property>
  <property name="meta.media.1.codec.name">aac</property>
  <property name="meta.media.1.codec.long_name">AAC (Advanced Audio Coding)</property>
  <property name="meta.media.1.codec.bit_rate">127496</property>
  <property name="meta.attr.1.stream.creation_time.markup">2015-11-27 13:05:32</property>
  <property name="meta.attr.1.stream.language.markup">eng</property>
  <property name="meta.attr.major_brand.markup">mp42</property>
  <property name="meta.attr.minor_version.markup">1</property>
  <property name="meta.attr.compatible_brands.markup">mp42avc1CAEP</property>
  <property name="meta.attr.creation_time.markup">2015-11-27 13:05:32</property>
  <property name="seekable">1</property>
  <property name="meta.media.sample_aspect_num">1</property>
  <property name="meta.media.sample_aspect_den">1</property>
  <property name="aspect_ratio">1</property>
  <property name="audio_index">1</property>
  <property name="video_index">0</property>
  <property name="mlt_service">avformat</property>
  <property name="meta.media.frame_rate_num">30000</property>
  <property name="meta.media.frame_rate_den">1001</property>
  <property name="meta.media.colorspace">709</property>
  <property name="meta.media.width">1280</property>
  <property name="meta.media.height">720</property>
  <property name="meta.media.top_field_first">0</property>
  <property name="meta.media.progressive">1</property>
 </producer>
 <producer in="0" out="149" id="1">
  <property name="mlt_type">producer</property>
  <property name="length">150</property>
  <property name="eof">pause</property>
  <property name="resource">Projects/Inspiration for Success/Assets/title slide.png</property>
  <property name="ttl">25</property>
  <property name="aspect_ratio">1</property>
  <property name="progressive">1</property>
  <property name="seekable">1</property>
  <property name="loop">1</property>
  <property name="meta.media.width">1920</property>
  <property name="meta.media.height">1080</property>
  <property name="mlt_service">pixbuf</property>
 </producer>
 <playlist id="playlist4">
  <entry in="0" out="89" producer="3"/>
  <entry in="1495" out="1793" producer="4_1">
   <filter id="chroma">
    <property name="track">0</property>
    <property name="key">0x147e2fff</property>
    <property name="variance">0.1</property>
    <property name="mlt_type">filter</property>
    <property name="mlt_service">chroma</property>
    <property name="kdenlive_id">chroma</property>
    <property name="tag">chroma</property>
    <property name="kdenlive_ix">1</property>
    <property name="disable">0</property>
    <property name="kdenlive_info"/>
   </filter>
  </entry>
  <entry in="2473" out="2759" producer="4_1">
   <filter id="filter0">
    <property name="track">0</property>
    <property name="key">0x117c29ff</property>
    <property name="variance">0.1</property>
    <property name="mlt_type">filter</property>
    <property name="mlt_service">chroma</property>
    <property name="kdenlive_id">chroma</property>
    <property name="tag">chroma</property>
    <property name="kdenlive_ix">1</property>
    <property name="disable">0</property>
    <property name="kdenlive_info"/>
   </filter>
  </entry>
  <entry in="3581" out="3847" producer="4_1">
   <filter id="filter1">
    <property name="track">0</property>
    <property name="key">0x187e27ff</property>
    <property name="variance">0.08</property>
    <property name="mlt_type">filter</property>
    <property name="mlt_service">chroma</property>
    <property name="kdenlive_id">chroma</property>
    <property name="tag">chroma</property>
    <property name="kdenlive_ix">1</property>
    <property name="disable">0</property>
    <property name="kdenlive_info"/>
   </filter>
  </entry>
  <entry in="4118" out="4205" producer="4_1">
   <filter id="filter2">
    <property name="track">0</property>
    <property name="key">0x1a822cff</property>
    <property name="variance">0.07</property>
    <property name="mlt_type">filter</property>
    <property name="mlt_service">chroma</property>
    <property name="kdenlive_id">chroma</property>
    <property name="tag">chroma</property>
    <property name="kdenlive_ix">1</property>
    <property name="disable">0</property>
    <property name="kdenlive_info"/>
   </filter>
  </entry>
  <entry in="5316" out="5565" producer="4_1">
   <filter id="filter3">
    <property name="track">0</property>
    <property name="key">0x147b2fff</property>
    <property name="variance">0.1</property>
    <property name="mlt_type">filter</property>
    <property name="mlt_service">chroma</property>
    <property name="kdenlive_id">chroma</property>
    <property name="tag">chroma</property>
    <property name="kdenlive_ix">1</property>
    <property name="disable">0</property>
    <property name="kdenlive_info"/>
   </filter>
  </entry>
  <entry in="6118" out="6304" producer="4_1">
   <filter id="filter4">
    <property name="track">0</property>
    <property name="key">0x1b832eff</property>
    <property name="variance">0.06</property>
    <property name="mlt_type">filter</property>
    <property name="mlt_service">chroma</property>
    <property name="kdenlive_id">chroma</property>
    <property name="tag">chroma</property>
    <property name="kdenlive_ix">1</property>
    <property name="disable">0</property>
    <property name="kdenlive_info"/>
   </filter>
  </entry>
  <entry in="7101" out="7259" producer="4_1">
   <filter id="filter5">
    <property name="track">0</property>
    <property name="key">0x107927ff</property>
    <property name="variance">0.08</property>
    <property name="mlt_type">filter</property>
    <property name="mlt_service">chroma</property>
    <property name="kdenlive_id">chroma</property>
    <property name="tag">chroma</property>
    <property name="kdenlive_ix">1</property>
    <property name="disable">0</property>
    <property name="kdenlive_info"/>
   </filter>
  </entry>
  <entry in="8217" out="8429" producer="4_1">
   <filter id="filter6">
    <property name="track">0</property>
    <property name="key">0x107527ff</property>
    <property name="variance">0.07</property>
    <property name="mlt_type">filter</property>
    <property name="mlt_service">chroma</property>
    <property name="kdenlive_id">chroma</property>
    <property name="tag">chroma</property>
    <property name="kdenlive_ix">1</property>
    <property name="disable">0</property>
    <property name="kdenlive_info"/>
   </filter>
  </entry>
  <entry in="9457" out="9805" producer="4_1">
   <filter id="filter7">
    <property name="track">0</property>
    <property name="key">0x0f7925ff</property>
    <property name="variance">0.06</property>
    <property name="mlt_type">filter</property>
    <property name="mlt_service">chroma</property>
    <property name="kdenlive_id">chroma</property>
    <property name="tag">chroma</property>
    <property name="kdenlive_ix">1</property>
    <property name="disable">0</property>
    <property name="kdenlive_info"/>
   </filter>
  </entry>
  <entry in="10232" out="10408" producer="4_1">
   <filter id="filter8">
    <property name="track">0</property>
    <property name="key">0x117c2aff</property>
    <property name="variance">0.06</property>
    <property name="mlt_type">filter</property>
    <property name="mlt_service">chroma</property>
    <property name="kdenlive_id">chroma</property>
    <property name="tag">chroma</property>
    <property name="kdenlive_ix">1</property>
    <property name="disable">0</property>
    <property name="kdenlive_info"/>
   </filter>
  </entry>
  <entry in="0" out="89" producer="1"/>
 </playlist>
 <playlist id="playlist5"/>
 <tractor title="Anonymous Submission" global_feed="1" in="0" out="2455" id="maintractor">
  <property name="meta.volume">1</property>
  <track producer="black_track"/>
  <track hide="video" producer="playlist1"/>
  <track hide="video" producer="playlist2"/>
  <track producer="playlist3"/>
  <track hide="audio" producer="playlist4"/>
  <track producer="playlist5"/>
  <transition id="transition0">
   <property name="a_track">1</property>
   <property name="b_track">2</property>
   <property name="mlt_type">transition</property>
   <property name="mlt_service">mix</property>
   <property name="always_active">1</property>
   <property name="combine">1</property>
   <property name="internal_added">237</property>
  </transition>
  <transition id="transition1">
   <property name="a_track">1</property>
   <property name="b_track">3</property>
   <property name="mlt_type">transition</property>
   <property name="mlt_service">mix</property>
   <property name="always_active">1</property>
   <property name="combine">1</property>
   <property name="internal_added">237</property>
  </transition>
  <transition id="transition2">
   <property name="a_track">1</property>
   <property name="b_track">4</property>
   <property name="mlt_type">transition</property>
   <property name="mlt_service">mix</property>
   <property name="always_active">1</property>
   <property name="combine">1</property>
   <property name="internal_added">237</property>
  </transition>
  <transition id="transition3">
   <property name="a_track">1</property>
   <property name="b_track">5</property>
   <property name="mlt_type">transition</property>
   <property name="mlt_service">mix</property>
   <property name="always_active">1</property>
   <property name="combine">1</property>
   <property name="internal_added">237</property>
  </transition>
  <transition in="90" out="2365" id="transition4">
   <property name="a_track">3</property>
   <property name="b_track">4</property>
   <property name="start">0/0:100%x100%</property>
   <property name="factory">loader</property>
   <property name="aligned">1</property>
   <property name="progressive">1</property>
   <property name="mlt_type">transition</property>
   <property name="mlt_service">composite</property>
   <property name="automatic">1</property>
   <property name="kdenlive_id">composite</property>
   <property name="force_track">0</property>
   <property name="deinterlace">0</property>
   <property name="distort">0</property>
   <property name="fill">1</property>
   <property name="geometry">0%/0%:100%x100%:100</property>
   <property name="luma_invert">0</property>
   <property name="operator">over</property>
   <property name="softness">0</property>
  </transition>
 </tractor>
 <kdenlivedoc profile="atsc_1080p_30" kdenliveversion="0.9.6" version="0.88" projectfolder="/home/marc/Projects">
  <customeffects/>
  <documentproperties documentid="1448655413297" renderdestination="" renderrescalewidth="320" proxyextension="ts" generateproxy="0" proxyimageminsize="2000" rendertctype="0" verticalzoom="1" renderprofile="MPEG-4/AAC" renderrescaleheight="180" zonein="0" renderrescale="0" renderscanning="0" renderurl="/home/marc/Projects/Inspiration for Success/Lectures/Conclusion/RenderedProject/conclusion.mp4" rendertwopass="1" renderplay="0" position="11" proxyminsize="1000" renderstartguide="-1" zoom="6" renderratio="1" rendercategory="MPEG-4" zoneout="100" renderzone="0" renderendguide="-1" renderexportaudio="2" proxyparams="-f mpegts -acodec libmp3lame -ac 2 -ab 128k -ar 48000 -vcodec mpeg2video -g 5 -deinterlace -s 480x270 -vb 400k" enableproxy="0" generateimageproxy="0" renderguide="0" rendertcoverlay="0"/>
  <documentmetadata/>
  <documentnotes>&lt;!DOCTYPE HTML PUBLIC "-//W3C//DTD HTML 4.0//EN" "http://www.w3.org/TR/REC-html40/strict.dtd">
&lt;html>&lt;head>&lt;meta name="qrichtext" content="1" />&lt;style type="text/css">
p, li { white-space: pre-wrap; }
&lt;/style>&lt;/head>&lt;body style=" font-family:'Ubuntu'; font-size:11pt; font-weight:400; font-style:normal;">
&lt;p style="-qt-paragraph-type:empty; margin-top:0px; margin-bottom:0px; margin-left:0px; margin-right:0px; -qt-block-indent:0; text-indent:0px;">&lt;br />&lt;/p>&lt;/body>&lt;/html></documentnotes>
  <profileinfo width="1920" display_aspect_den="9" frame_rate_den="1" description="HD 1080p 30 fps" height="1080" frame_rate_num="30" display_aspect_num="16" progressive="1" sample_aspect_num="1" sample_aspect_den="1"/>
  <tracksinfo>
   <trackinfo blind="1" mute="0" locked="0" trackname="Audio 2" type="audio"/>
   <trackinfo blind="1" mute="0" locked="0" trackname="Audio 1" type="audio"/>
   <trackinfo blind="0" mute="0" locked="0" trackname="Video 3"/>
   <trackinfo blind="0" mute="1" locked="0" trackname="Video 2"/>
   <trackinfo blind="0" mute="0" locked="0" trackname="Video 1"/>
  </tracksinfo>
  <kdenlive_producer duration="150" frame_size="1920x1080" thumbnail="100" in="0" analysisdata="" file_size="24602" aspect_ratio="1" out="149" file_hash="1e4971f37b14296d402f046e7bec7de4" type="5" id="1" name="title slide.png" resource="/home/marc/Projects/Inspiration for Success/Assets/title slide.png"/>
  <kdenlive_producer duration="150" frame_size="1920x1080" thumbnail="100" in="0" analysisdata="" file_size="10670" aspect_ratio="1" out="149" file_hash="6716397e2218ba2c7ef54638ebcd9250" type="5" id="2" name="white background.png" resource="/home/marc/Projects/Inspiration for Success/Assets/white background.png"/>
  <kdenlive_producer duration="150" frame_size="1920x1080" in="0" analysisdata="" file_size="39062" aspect_ratio="1" out="149" file_hash="a1726f069fc3cb9219a426afebdacd42" type="5" id="3" name="title slide.png" resource="/home/marc/Projects/Inspiration for Success/Lectures/Conclusion/EditorProject/title slide.png"/>
  <kdenlive_producer audio_max="59" id="4" pix_fmt="yuv420p" default_video="0" fps="29.97" analysisdata="" name="MVI_0171.MP4" videocodecid="h264" thumbnail="100" colorspace="709" videocodec="H.264 / AVC / MPEG-4 AVC / MPEG-4 part 10" resource="/home/marc/Projects/Inspiration for Success/Lectures/Conclusion/Video/MVI_0171.MP4" default_audio="1" audiocodec="AAC (Advanced Audio Coding)" duration="10947" file_hash="c2a17c293ae02ccff297139b80e466bc" aspect_ratio="1" channels="2" frequency="48000" video_max="0" progressive="1" type="3" frame_size="1280x720" file_size="183260078">
   <metaproperty tool="" name="meta.attr.0.stream.creation_time">2015-11-27 13:05:32</metaproperty>
   <metaproperty tool="" name="meta.attr.0.stream.language">eng</metaproperty>
   <metaproperty tool="" name="meta.attr.1.stream.creation_time">2015-11-27 13:05:32</metaproperty>
   <metaproperty tool="" name="meta.attr.1.stream.language">eng</metaproperty>
   <metaproperty tool="" name="meta.attr.compatible_brands">mp42avc1CAEP</metaproperty>
   <metaproperty tool="" name="meta.attr.creation_time">2015-11-27 13:05:32</metaproperty>
   <metaproperty tool="" name="meta.attr.major_brand">mp42</metaproperty>
   <metaproperty tool="" name="meta.attr.minor_version">1</metaproperty>
  </kdenlive_producer>
  <kdenlive_producer audio_max="47" audiocodec="FLAC (Free Lossless Audio Codec)" channels="1" duration="291" frame_size="1920x1080" frequency="44100" analysisdata="" file_size="359762" aspect_ratio="0" file_hash="70740f093b443f212746002866649242" type="1" id="5" name="clip-01.flac" resource="/home/marc/Projects/Inspiration for Success/Lectures/Conclusion/Audio/clip-01.flac"/>
  <kdenlive_producer audio_max="41" audiocodec="FLAC (Free Lossless Audio Codec)" channels="1" duration="249" frame_size="1920x1080" frequency="44100" analysisdata="" file_size="305628" aspect_ratio="0" file_hash="33cb13a0ab54d46e1028c694f0395008" type="1" id="6" name="clip-02.flac" resource="/home/marc/Projects/Inspiration for Success/Lectures/Conclusion/Audio/clip-02.flac"/>
  <kdenlive_producer audio_max="57" audiocodec="FLAC (Free Lossless Audio Codec)" channels="1" duration="273" frame_size="1920x1080" frequency="44100" analysisdata="" file_size="334743" aspect_ratio="0" file_hash="1b8d22679b01be2d7f22ec605c02827b" type="1" id="7" name="clip-03.flac" resource="/home/marc/Projects/Inspiration for Success/Lectures/Conclusion/Audio/clip-03.flac"/>
  <kdenlive_producer audio_max="45" audiocodec="FLAC (Free Lossless Audio Codec)" channels="1" duration="75" frame_size="1920x1080" frequency="44100" analysisdata="" file_size="92530" aspect_ratio="0" file_hash="3dc4ba3bdaa524211eb9894744cc9bdf" type="1" id="8" name="clip-04.flac" resource="/home/marc/Projects/Inspiration for Success/Lectures/Conclusion/Audio/clip-04.flac"/>
  <kdenlive_producer audio_max="50" audiocodec="FLAC (Free Lossless Audio Codec)" channels="1" duration="236" frame_size="1920x1080" frequency="44100" analysisdata="" file_size="303357" aspect_ratio="0" file_hash="906b2c77e2d4b36663a66e2ddc34275b" type="1" id="9" name="clip-05.flac" resource="/home/marc/Projects/Inspiration for Success/Lectures/Conclusion/Audio/clip-05.flac"/>
  <kdenlive_producer audio_max="50" audiocodec="FLAC (Free Lossless Audio Codec)" channels="1" duration="252" frame_size="1920x1080" frequency="44100" analysisdata="" file_size="318838" aspect_ratio="0" file_hash="44e2da2f5ebe901d61aff5002ce7b5f2" type="1" id="10" name="clip-06.flac" resource="/home/marc/Projects/Inspiration for Success/Lectures/Conclusion/Audio/clip-06.flac"/>
  <kdenlive_producer audio_max="49" audiocodec="FLAC (Free Lossless Audio Codec)" channels="1" duration="151" frame_size="1920x1080" frequency="44100" analysisdata="" file_size="200207" aspect_ratio="0" file_hash="91b71281972890ea1d31ed0ab282caac" type="1" id="11" name="clip-07.flac" resource="/home/marc/Projects/Inspiration for Success/Lectures/Conclusion/Audio/clip-07.flac"/>
  <kdenlive_producer audio_max="54" audiocodec="FLAC (Free Lossless Audio Codec)" channels="1" duration="215" frame_size="1920x1080" frequency="44100" analysisdata="" file_size="267146" aspect_ratio="0" file_hash="7233ec22ecdeb458e64519d6d158a995" type="1" id="12" name="clip-08.flac" resource="/home/marc/Projects/Inspiration for Success/Lectures/Conclusion/Audio/clip-08.flac"/>
  <kdenlive_producer audio_max="45" audiocodec="FLAC (Free Lossless Audio Codec)" channels="1" duration="361" frame_size="1920x1080" frequency="44100" analysisdata="" file_size="467220" aspect_ratio="0" file_hash="864f14667e56549bdcdad3cf7b1b7305" type="1" id="13" name="clip-09.flac" resource="/home/marc/Projects/Inspiration for Success/Lectures/Conclusion/Audio/clip-09.flac"/>
  <kdenlive_producer audio_max="47" audiocodec="FLAC (Free Lossless Audio Codec)" channels="1" duration="173" frame_size="1920x1080" frequency="44100" analysisdata="" file_size="223126" aspect_ratio="0" file_hash="3a72bc1ea26fa800d66bd3d25baed2f4" type="1" id="14" name="clip-10.flac" resource="/home/marc/Projects/Inspiration for Success/Lectures/Conclusion/Audio/clip-10.flac"/>
  <markers/>
  <groups/>
 </kdenlivedoc>
</mlt>
